<?xml version="1.0" encoding="UTF-8" standalone="no"?>
<!DOCTYPE svg PUBLIC "-//W3C//DTD SVG 1.1//EN" "http://www.w3.org/Graphics/SVG/1.1/DTD/svg11.dtd">
<svg width="100%" height="100%" viewBox="0 0 267 267" version="1.1" xmlns="http://www.w3.org/2000/svg" xmlns:xlink="http://www.w3.org/1999/xlink" xml:space="preserve" xmlns:serif="http://www.serif.com/" style="fill-rule:evenodd;clip-rule:evenodd;stroke-linejoin:round;stroke-miterlimit:2;">
    <g transform="matrix(1,0,0,1,-2438,-1800)">
        <g id="Page-23" serif:id="Page 23" transform="matrix(1,0,0,1,-0.51948,0)">
            <rect x="2438.52" y="1800" width="266.667" height="266.667" style="fill:none;"/>
            <clipPath id="_clip1">
                <rect x="2438.52" y="1800" width="266.667" height="266.667"/>
            </clipPath>
            <g clip-path="url(#_clip1)">
                <g transform="matrix(0.585141,0,0,0.585141,2438.52,1800)">
                    <rect x="0" y="0" width="455.731" height="455.731" style="fill:rgb(80,171,241);"/>
                </g>
                <g transform="matrix(0.585141,0,0,0.585141,2438.52,1800)">
                    <path d="M60.377,337.822C90.707,357.058 126.685,368.19 165.252,368.19C273.601,368.19 361.432,280.349 361.432,172.01C361.432,169.305 361.375,166.62 361.271,163.943C365.19,160.859 389.428,141.432 395.369,128.943C395.369,128.943 375.686,137.123 356.422,139.05C356.384,139.05 356.337,139.059 356.299,139.059C356.299,139.059 356.337,139.04 356.403,138.993C358.178,137.807 382.994,120.914 386.354,100.786C386.354,100.786 372.432,108.217 352.939,114.718C349.712,115.79 346.334,116.844 342.851,117.821C330.286,104.411 312.426,96.041 292.601,96.041C254.574,96.041 223.76,126.846 223.76,164.844C223.76,170.206 224.377,175.425 225.544,180.436C220.23,180.218 139.307,175.681 84.255,109.013C84.255,109.013 51.353,153.93 103.862,200.118C103.862,200.118 87.9,199.482 74.129,191.254C74.129,191.254 69.071,245.67 128.536,259.583C128.536,259.583 116.835,264.015 98.168,260.855C98.168,260.855 108.607,304.823 161.439,308.932C161.439,308.932 119.662,346.672 60.358,337.817L60.377,337.822Z" style="fill:white;fill-rule:nonzero;"/>
                </g>
            </g>
        </g>
    </g>
</svg>
