<?xml version="1.0" encoding="utf-8"?>
<!-- Generator: Adobe Illustrator 16.0.0, SVG Export Plug-In . SVG Version: 6.00 Build 0)  -->
<!DOCTYPE svg PUBLIC "-//W3C//DTD SVG 1.1//EN" "http://www.w3.org/Graphics/SVG/1.1/DTD/svg11.dtd">
<svg version="1.1" id="Layer_1" xmlns="http://www.w3.org/2000/svg" xmlns:xlink="http://www.w3.org/1999/xlink" x="0px" y="0px"
	 width="475.529px" height="200px" viewBox="0 0 475.529 200" enable-background="new 0 0 475.529 200" xml:space="preserve">
<g>
	<g>
		<g>
			<path fill="#86005E" d="M34.622,95.699L16.814,52.907h-0.242v42.792H0V11.817h16.572v39.021h0.242L34.99,11.817h16.449
				L32.06,50.713l21.213,44.986H34.622z"/>
			<path fill="#86005E" d="M80.95,96.914c-15.732,0-23.662-7.554-23.662-20.604c0-16.828,12.447-22.064,29.992-24.389V49.73
				c0-6.208-3.646-9.125-9.384-9.125c-5.5,0-10.363,1.564-13.898,3.404l-3.3-10.36c3.781-2.079,10.368-4.883,20.252-4.883
				c12.303,0,21.571,6.091,21.571,24.141v39.138C97.769,95.087,91.184,96.914,80.95,96.914z M87.28,61.447
				c-10.12,1.333-15.119,4.745-15.119,14.261c0,6.707,3.298,10.479,9.517,10.479c2.192,0,4.384-0.615,5.603-1.094V61.447z"/>
			<path fill="#86005E" d="M142.859,41.813c-3.638-1.823-7.807-1.699-10.827-0.245v54.132h-15.743v-62.05
				c5.972-3.547,14.381-5.495,29.499-4.765L142.859,41.813z"/>
			<path fill="#86005E" d="M173.834,96.914c-16.113,0-24.029-14.627-24.029-34.134c0-19.504,7.916-34.014,24.029-34.014
				c16.202,0,24.009,14.51,24.009,34.014C197.843,82.287,190.036,96.914,173.834,96.914z M173.834,40.477
				c-6.956,0-8.162,9.991-8.162,21.934c0,11.955,1.34,21.7,8.162,21.7c7.067,0,8.296-9.745,8.296-21.569
				C182.13,50.592,180.901,40.477,173.834,40.477z"/>
			<path fill="#86005E" d="M210.29,95.699V4.681L226.246,0v95.699H210.29z"/>
			<path fill="#86005E" d="M248.423,19.268c-4.609,0-8.41-3.906-8.41-8.543c0-4.755,3.801-8.527,8.41-8.527
				c4.762,0,8.667,3.772,8.667,8.527C257.09,15.361,253.185,19.268,248.423,19.268z M240.628,95.699V29.992h15.846v65.707H240.628z"
				/>
			<path fill="#86005E" d="M300.868,95.699V49.25c0-5.728-2.325-8.897-7.94-8.897c-3.287,0-4.886,0.363-6.564,1.215v54.132h-15.745
				v-62.05c5.225-2.931,12.671-4.883,22.69-4.883c16.081,0,23.508,6.582,23.508,20.483v46.449H300.868z"/>
			<path fill="#86005E" d="M343.642,96.914c-7.446,0-12.568-1.581-16.327-4.869l3.88-11.596c1.845,1.71,5.728,3.661,10.009,3.661
				c4.128,0,6.833-2.437,6.833-6.087c0-4.765-2.09-6.699-7.93-11.102c-6.206-4.626-11.698-10.36-11.698-19.015
				c0-11.216,7.429-19.141,18.399-19.141c7.077,0,12.31,1.831,16.1,4.883l-3.79,10.118c-1.585-1.474-4.617-3.162-8.665-3.162
				c-3.882,0-6.329,2.917-6.329,6.208c0,4.271,3.063,6.831,8.892,11.091c6.831,5.111,11.707,9.873,11.707,19.496
				C364.722,88.633,355.84,96.914,343.642,96.914z"/>
			<path fill="#86005E" d="M408.491,95.699l-16.698-34.373h-0.246v34.373h-15.723V4.681L391.547,0v60.092h0.246l16.819-30.1h15.622
				l-18.294,30.1l19.614,35.607H408.491z"/>
			<path fill="#86005E" d="M453.971,96.914c-15.727,0-23.664-7.554-23.664-20.604c0-16.828,12.446-22.064,30.012-24.389V49.73
				c0-6.208-3.687-9.125-9.412-9.125c-5.479,0-10.346,1.564-13.891,3.404l-3.287-10.36c3.778-2.079,10.355-4.883,20.242-4.883
				c12.309,0,21.559,6.091,21.559,24.141v39.138C470.776,95.087,464.191,96.914,453.971,96.914z M460.318,61.447
				c-10.15,1.333-15.119,4.745-15.119,14.261c0,6.707,3.277,10.479,9.484,10.479c2.206,0,4.417-0.615,5.635-1.094V61.447z"/>
		</g>
		<g>
			<path fill="#86005E" d="M25.35,198.785v-83.889h16.686v83.889H25.35z"/>
			<path fill="#86005E" d="M86.906,198.785v-46.46c0-5.741-2.314-8.907-7.917-8.907c-3.288,0-4.883,0.374-6.593,1.238v54.129H56.679
				v-62.07c5.234-2.921,12.671-4.872,22.669-4.872c16.089,0,23.534,6.589,23.534,20.482v46.46H86.906z"/>
			<path fill="#86005E" d="M129.707,200c-7.453,0-12.568-1.592-16.344-4.891l3.894-11.588c1.829,1.723,5.735,3.672,9.997,3.672
				c4.147,0,6.831-2.434,6.831-6.107c0-4.752-2.074-6.691-7.931-11.102c-6.205-4.6-11.693-10.341-11.693-18.995
				c0-11.232,7.426-19.146,18.399-19.146c7.073,0,12.319,1.83,16.098,4.872l-3.778,10.108c-1.582-1.443-4.636-3.153-8.656-3.153
				c-3.909,0-6.332,2.914-6.332,6.223c0,4.267,3.032,6.827,8.882,11.084c6.833,5.125,11.723,9.883,11.723,19.502
				C150.796,191.705,141.89,200,129.707,200z"/>
			<path fill="#86005E" d="M181.511,199.627c-10.739,0-16.582-7.313-16.582-18.898v-35.823h-5.851v-11.841h5.851V118.8l15.849-4.99
				v19.255h8.651v11.841h-8.651v34.134c0,6.09,2.056,8.154,5.363,8.154c1.466,0,2.423-0.371,3.288-0.617V197.9
				C188.451,198.654,185.167,199.627,181.511,199.627z"/>
			<path fill="#86005E" d="M208.07,122.333c-4.628,0-8.394-3.896-8.394-8.523c0-4.768,3.766-8.54,8.394-8.54
				c4.778,0,8.66,3.772,8.66,8.54C216.73,118.437,212.849,122.333,208.07,122.333z M200.277,198.785v-65.721h15.844v65.721H200.277z
				"/>
			<path fill="#86005E" d="M250.006,199.627c-10.73,0-16.573-7.313-16.573-18.898v-35.823h-5.846v-11.841h5.846V118.8l15.851-4.99
				v19.255h8.646v11.841h-8.646v34.134c0,6.09,2.072,8.154,5.372,8.154c1.455,0,2.423-0.371,3.274-0.617V197.9
				C256.957,198.654,253.662,199.627,250.006,199.627z"/>
			<path fill="#86005E" d="M291.592,200c-14.637,0-23.038-6.334-23.038-22.801v-44.135h15.836v45.975
				c0,5.229,2.564,8.518,7.694,8.518c2.416,0,4.619-0.609,6.324-1.578v-52.914h15.965v61.803C309.635,197.9,301.933,200,291.592,200
				z"/>
			<path fill="#86005E" d="M347.898,199.627c-10.725,0-16.579-7.313-16.579-18.898v-35.823h-5.84v-11.841h5.84V118.8l15.846-4.99
				v19.255h8.649v11.841h-8.649v34.134c0,6.09,2.079,8.154,5.373,8.154c1.464,0,2.438-0.371,3.276-0.617V197.9
				C354.863,198.654,351.569,199.627,347.898,199.627z"/>
			<path fill="#86005E" d="M379.467,173.182c0.987,9.508,5.111,14.26,12.909,14.26c6.705,0,11.229-1.83,13.788-3.43l3.543,11.098
				C405.555,198.045,399.081,200,390.3,200c-17.285,0-26.562-12.807-26.562-34.256c0-19.755,9.03-33.901,24.631-33.901
				c16.577,0,24.623,14.146,23.404,37.3L379.467,173.182z M388.014,143.301c-5.87,0-9.654,8.056-9.536,19.624l17.813-2.194
				C396.291,149.653,393.847,143.301,388.014,143.301z"/>
			<path fill="#86005E" d="M442.733,199.627c-10.734,0-16.579-7.313-16.579-18.898v-35.823h-5.849v-11.841h5.849V118.8l15.851-4.99
				v19.255h8.654v11.841h-8.654v34.134c0,6.09,2.063,8.154,5.352,8.154c1.479,0,2.438-0.371,3.303-0.617V197.9
				C449.682,198.654,446.374,199.627,442.733,199.627z"/>
		</g>
	</g>
</g>
</svg>
