<?xml version="1.0" encoding="utf-8"?>
<!-- Generator: Adobe Illustrator 16.0.0, SVG Export Plug-In . SVG Version: 6.00 Build 0)  -->
<!DOCTYPE svg PUBLIC "-//W3C//DTD SVG 1.1//EN" "http://www.w3.org/Graphics/SVG/1.1/DTD/svg11.dtd">
<svg version="1.1" id="Layer_1" xmlns="http://www.w3.org/2000/svg" xmlns:xlink="http://www.w3.org/1999/xlink" x="0px" y="0px"
	 width="200px" height="200px" viewBox="0 0 200 200" enable-background="new 0 0 200 200" xml:space="preserve">
<g>
	<path fill-rule="evenodd" clip-rule="evenodd" fill="#3CBEB3" d="M0,200C0,133.264,0,66.739,0,0c66.696,0,133.244,0,200,0
		c0,66.652,0,133.219,0,200C133.365,200,66.817,200,0,200z M75.816,114.406c0.569,0.849,1.022,1.511,1.462,2.184
		c5.169,7.908,10.245,15.883,15.535,23.711c4.817,7.129,11.64,10.394,20.254,9.675c1.284-0.106,2.545-0.489,3.966-0.775
		c-0.064-1.131-0.111-1.952-0.154-2.715c-6.716-1.258-9.993-4.487-12.524-7.382c-6.537-7.477-12.416-15.456-17.327-24.118
		c-0.301-0.53-0.545-1.093-0.905-1.821c0.732-0.27,1.256-0.462,1.781-0.654c7.862-2.878,13.079-8.266,15.022-16.471
		c2.212-9.336-2.203-17.951-10.772-21.758c-4.453-1.979-9.154-2.468-13.912-2.531c-4.572-0.061-9.146,0.165-13.72,0.204
		c-4.97,0.042-9.941,0.006-14.912,0.025c-0.725,0.004-1.448,0.128-2.276,0.206c0,1.081,0,1.971,0,2.991
		c1.728,0.412,3.346,0.813,4.972,1.182c2.287,0.52,3.639,1.993,4.116,4.22c0.29,1.352,0.471,2.754,0.474,4.135
		c0.034,14.053,0.021,28.105,0.021,42.16c0,3.484,0.029,6.969-0.012,10.452c-0.06,5.177-1.557,6.951-6.597,7.989
		c-0.997,0.205-1.98,0.479-3.112,0.756c0.056,1.152,0.101,2.077,0.14,2.867c5.29,0,10.264,0,15.237,0c4.958,0,9.916,0,14.998,0
		c0-0.942,0-1.875,0-2.941c-1.053-0.185-1.957-0.339-2.858-0.503c-1.479-0.27-2.981-0.45-4.427-0.841
		c-1.824-0.49-2.992-1.748-3.36-3.623c-0.279-1.418-0.601-2.859-0.615-4.293c-0.068-6.794-0.043-13.588-0.029-20.383
		c0.002-0.666,0.15-1.332,0.224-1.947C69.75,114.406,72.788,114.406,75.816,114.406z M136.493,71.274
		c0.728,2.442,0.129,5.551-1.389,8.146c-2.164,3.695-7.268,5.229-11.104,3.329c-2.608-1.29-4.198-3.517-4.401-6.282
		c-0.37-5.023-0.386-10.077-0.431-15.12c-0.037-4.049,2.493-7.396,6.32-8.656c3.765-1.238,7.842,0.023,10.237,3.158
		c0.41,0.535,0.849,1.046,1.384,1.703c1.483-1.085,2.812-2.057,4.142-3.029c-0.753-2.234-2.085-3.719-3.756-4.932
		c-3.432-2.488-7.342-3.007-11.426-2.691c-7.025,0.542-12.255,5.162-12.767,12.186c-0.449,6.164-0.31,12.411,0.12,18.583
		c0.384,5.512,4.034,9.264,9.382,10.582c3.548,0.876,7.148,0.748,10.662-0.169c4.577-1.194,7.44-4.189,8.239-8.888
		c0.435-2.562,0.552-5.181,0.724-7.78c0.099-1.468,0.018-2.947,0.018-4.501c-4.681,0-8.929,0-13.335,0c0,1.446,0,2.725,0,4.361
		C131.724,71.274,134.168,71.274,136.493,71.274z"/>
	<path fill-rule="evenodd" clip-rule="evenodd" fill="#FFFFFF" d="M75.816,114.406c-3.028,0-6.065,0-9.31,0
		c-0.074,0.615-0.222,1.281-0.224,1.947c-0.014,6.795-0.039,13.589,0.029,20.383c0.014,1.434,0.336,2.875,0.615,4.293
		c0.368,1.875,1.536,3.133,3.36,3.623c1.445,0.391,2.948,0.571,4.427,0.841c0.901,0.164,1.805,0.318,2.858,0.503
		c0,1.066,0,1.999,0,2.941c-5.082,0-10.04,0-14.998,0c-4.973,0-9.947,0-15.237,0c-0.039-0.79-0.084-1.715-0.14-2.867
		c1.132-0.276,2.115-0.551,3.112-0.756c5.04-1.038,6.537-2.813,6.597-7.989c0.041-3.483,0.012-6.968,0.012-10.452
		c0-14.055,0.013-28.107-0.021-42.16c-0.003-1.381-0.184-2.783-0.474-4.135c-0.477-2.227-1.829-3.7-4.116-4.22
		c-1.626-0.368-3.244-0.77-4.972-1.182c0-1.021,0-1.91,0-2.991c0.828-0.078,1.551-0.202,2.276-0.206
		c4.97-0.02,9.942,0.017,14.912-0.025c4.574-0.039,9.148-0.265,13.72-0.204c4.758,0.063,9.459,0.553,13.912,2.531
		c8.569,3.807,12.984,12.422,10.772,21.758c-1.943,8.205-7.161,13.593-15.022,16.471c-0.524,0.192-1.048,0.385-1.781,0.654
		c0.36,0.729,0.604,1.291,0.905,1.821c4.911,8.662,10.79,16.642,17.327,24.118c2.532,2.895,5.809,6.124,12.524,7.382
		c0.042,0.763,0.089,1.584,0.154,2.715c-1.42,0.286-2.682,0.669-3.966,0.775c-8.614,0.719-15.437-2.546-20.254-9.675
		c-5.291-7.828-10.366-15.803-15.535-23.711C76.838,115.917,76.385,115.255,75.816,114.406z M66.481,77.72c0,10.326,0,20.6,0,30.986
		c4.684,0.379,9.143,0.825,13.64-0.031c4.384-0.836,7.867-3.046,10.412-6.649c2.273-3.219,2.704-6.929,2.582-10.795
		C92.906,84.6,88.93,79.484,82.516,77.826c-4.916-1.271-9.909-0.514-14.87-0.568C67.283,77.256,66.917,77.54,66.481,77.72z"/>
	<path fill-rule="evenodd" clip-rule="evenodd" fill="#FFFFFF" d="M136.493,71.274c-2.325,0-4.769,0-7.383,0
		c0-1.637,0-2.915,0-4.361c4.407,0,8.654,0,13.335,0c0,1.554,0.081,3.033-0.018,4.501c-0.172,2.6-0.29,5.219-0.724,7.78
		c-0.798,4.698-3.662,7.693-8.239,8.888c-3.514,0.917-7.114,1.045-10.662,0.169c-5.348-1.318-8.998-5.07-9.382-10.582
		c-0.43-6.172-0.569-12.419-0.12-18.583c0.512-7.023,5.742-11.644,12.767-12.186c4.083-0.315,7.994,0.203,11.426,2.691
		c1.671,1.213,3.003,2.697,3.756,4.932c-1.33,0.973-2.659,1.944-4.142,3.029c-0.535-0.657-0.974-1.168-1.384-1.703
		c-2.395-3.135-6.472-4.396-10.237-3.158c-3.827,1.26-6.357,4.607-6.32,8.656c0.045,5.043,0.061,10.097,0.431,15.12
		c0.203,2.766,1.792,4.992,4.401,6.282c3.836,1.899,8.94,0.366,11.104-3.329C136.623,76.825,137.221,73.717,136.493,71.274z"/>
	<path fill-rule="evenodd" clip-rule="evenodd" fill="#3CBEB3" d="M66.481,77.72c0.436-0.18,0.801-0.464,1.165-0.462
		c4.961,0.055,9.954-0.703,14.87,0.568C88.93,79.484,92.906,84.6,93.115,91.23c0.122,3.866-0.309,7.576-2.582,10.795
		c-2.545,3.604-6.027,5.813-10.412,6.649c-4.497,0.856-8.956,0.41-13.64,0.031C66.481,98.319,66.481,88.046,66.481,77.72z"/>
</g>
</svg>
