<?xml version="1.0" encoding="utf-8"?>
<!-- Generator: Adobe Illustrator 16.0.0, SVG Export Plug-In . SVG Version: 6.00 Build 0)  -->
<!DOCTYPE svg PUBLIC "-//W3C//DTD SVG 1.1//EN" "http://www.w3.org/Graphics/SVG/1.1/DTD/svg11.dtd">
<svg version="1.1" id="Layer_1" xmlns="http://www.w3.org/2000/svg" xmlns:xlink="http://www.w3.org/1999/xlink" x="0px" y="0px"
	 width="521.709px" height="200px" viewBox="0 0 521.709 200" enable-background="new 0 0 521.709 200" xml:space="preserve">
<g>
	<path d="M266.655,185.465L266.655,185.465c-10.088-60.844-45.233-45.873-45.233-45.873l-0.989-127.556
		c0,0,26.745-9.186,46.514,52.645l0,0L266.655,185.465z"/>
	<path fill="#989898" d="M266.655,186.074L266.655,186.074c-2.907-74.883-23.256-70.23-23.256-70.23L241.017,0
		c0,0,22.905,11.802,26.16,58.138l0,0L266.655,186.074z"/>
	<path fill="#32659A" d="M63.575,92.761c0,9.012-2.704,15.717-8.11,20.117c-5.409,4.399-13.16,6.608-23.257,6.628H20.347v38.517H0
		V66.074h31.975c8.212-0.445,16.333,1.89,23.053,6.63C60.745,77.102,63.593,83.788,63.575,92.761z M43.226,95.436
		c0.311-3.771-1.022-7.493-3.663-10.203c-2.903-2.38-6.603-3.574-10.349-3.343h-8.721v27.441h9.389
		c3.807,0.339,7.571-1.035,10.262-3.751C42.374,102.69,43.472,99.082,43.226,95.436z"/>
	<path fill="#32659A" d="M133.138,158.022h-18.342v-7.354l-7.588,4.301c-2.098,1.227-4.331,2.202-6.656,2.908
		c-2.434,0.667-4.949,0.999-7.472,0.987c-5.596,0.313-11.053-1.806-14.97-5.813c-3.773-4.29-5.734-9.874-5.467-15.581V93.865h18.344
		v39.449c-0.023,2.313,0.879,4.54,2.5,6.192c2.068,1.949,4.867,2.931,7.702,2.703c2.904,0.082,5.769-0.644,8.287-2.094
		c1.909-1.07,3.692-2.346,5.319-3.81V93.865h18.342V158.022z"/>
	<path fill="#32659A" d="M211.425,124.563c0.277,9.042-2.961,17.839-9.043,24.537c-5.783,6.445-14.104,10.035-22.762,9.824
		c-3.377-0.017-6.74-0.476-10.001-1.367c-2.664-0.582-5.196-1.657-7.472-3.168l-10.288,4.535l-4.391-2.354V66.074h17.967v30.698
		l6.917-3.313c1.486-0.695,3.009-1.308,4.564-1.832c1.822-0.582,3.725-0.867,5.641-0.843c8.184-0.383,16.061,3.172,21.191,9.565
		C209.054,107.276,211.769,115.844,211.425,124.563z M192.876,125.726c0.117-4.978-1.414-9.852-4.361-13.865
		c-2.518-3.665-6.689-5.844-11.133-5.814c-2.554-0.029-5.092,0.435-7.472,1.365c-1.819,0.623-3.378,1.842-4.417,3.462v30.521
		c1.306,1.273,2.9,2.21,4.65,2.732c2.257,0.748,4.627,1.112,7.007,1.076c5.812,0,9.708-1.542,12.149-4.651
		c2.785-4.417,4.062-9.621,3.633-14.826H192.876z"/>
	<path fill="#32659A" d="M451.652,128.575h-47.586c0.546,4.407,2.748,8.44,6.161,11.278c3.303,2.353,7.286,3.558,11.338,3.43
		c4.001-0.043,7.98-0.56,11.861-1.539c3.621-0.75,7.086-2.127,10.232-4.069v16.162c-3.225,2.023-6.824,3.378-10.582,3.981
		c-3.74,0.859-7.559,1.347-11.395,1.454c-11.367,0-20.205-3.081-26.599-9.272c-6.536-6.601-10.007-15.637-9.565-24.914
		c-0.396-9.446,3.141-18.633,9.77-25.379c6.477-6.416,15.3-9.904,24.416-9.649c8.932-0.345,17.521,3.465,23.257,10.32
		C448.814,107.238,451.712,116.636,451.652,128.575z M434.764,119.855c-0.558-4.14-2.493-7.97-5.493-10.874
		c-2.828-2.466-6.482-3.774-10.231-3.661c-3.995-0.293-7.918,1.16-10.756,3.98c-2.56,2.956-4.097,6.656-4.394,10.555H434.764z"/>
	<path fill="#32659A" d="M521.709,158.022h-13.981l-3.809-5.813l-9.65,5.176c-1.1,0.521-2.277,0.847-3.488,0.957
		c-1.307,0.216-2.629,0.333-3.953,0.35c-8.289,0.514-16.307-3.044-21.482-9.535c-5.067-6.902-7.669-15.309-7.385-23.866
		c-0.541-9.1,2.602-18.037,8.723-24.798c6.18-6.245,14.708-9.591,23.486-9.213c2.477-0.026,4.951,0.198,7.385,0.67
		c2.143,0.442,4.205,1.229,6.105,2.323V66.018h17.964L521.709,158.022z M503.745,138.198v-28.432
		c-1.369-1.431-3.065-2.507-4.941-3.139c-2.4-0.892-4.942-1.334-7.499-1.308c-4.204-0.324-8.323,1.305-11.163,4.419
		c-2.781,4.105-4.073,9.038-3.662,13.981c-0.379,5.146,0.994,10.267,3.896,14.535c2.554,3.19,6.464,4.981,10.55,4.824
		c2.586,0.067,5.154-0.427,7.527-1.454C500.413,140.815,502.205,139.651,503.745,138.198z"/>
	<path fill="#32659A" d="M266.655,69.187v116.278C284.098,112.79,377.12,200,377.12,200V75.001
		C377.12,75.001,284.098-3.488,266.655,69.187z"/>
	<polygon fill="#FFFFFF" points="348.979,149.36 340.258,105.754 324.386,143.313 316.363,143.313 302.031,107.47 293.31,149.477 
		276.452,149.477 293.895,71.22 300.578,71.22 321.335,117.413 342.235,71.104 349.474,71.104 366.916,149.36 	"/>
</g>
</svg>
