<?xml version="1.0" encoding="utf-8"?>
<!-- Generator: Adobe Illustrator 16.0.0, SVG Export Plug-In . SVG Version: 6.00 Build 0)  -->
<!DOCTYPE svg PUBLIC "-//W3C//DTD SVG 1.1//EN" "http://www.w3.org/Graphics/SVG/1.1/DTD/svg11.dtd">
<svg version="1.1" id="Layer_1" xmlns="http://www.w3.org/2000/svg" xmlns:xlink="http://www.w3.org/1999/xlink" x="0px" y="0px"
	 width="200px" height="200px" viewBox="0 0 200 200" enable-background="new 0 0 200 200" xml:space="preserve">
<g>
	<path fill-rule="evenodd" clip-rule="evenodd" fill="#047AB3" d="M199.979,100.001c0,28.389-0.032,56.777,0.021,85.166
		c0.014,7.846-5.893,13.988-13.252,14.732c-0.559,0.057-1.114,0.102-1.676,0.102c-56.715-0.002-113.43,0.006-170.145-0.016
		c-5.252-0.002-9.469-2.201-12.479-6.545c-1.659-2.395-2.442-5.102-2.442-8.006C-0.002,128.481,0,71.528,0,14.575
		C0.001,7.614,5.088,1.54,11.936,0.304c1.106-0.199,2.216-0.303,3.343-0.303c56.627,0.008,113.253-0.006,169.879,0.027
		c5.277,0.004,9.511,2.275,12.495,6.686c1.598,2.359,2.327,5.008,2.326,7.855C199.979,43.048,199.979,71.524,199.979,100.001z
		 M77.915,122.692c0,15.551,0,31.102,0,46.654c0,1.25-0.024,1.094,1.103,1.096c9.147,0.002,18.295,0.002,27.443,0
		c1.258,0,1.116,0.107,1.116-1.16c0.003-15.197,0.002-30.393,0.002-45.59c0-2.6,0.063-5.193,0.368-7.775
		c0.354-3.002,0.968-5.938,2.272-8.693c1.891-3.994,4.941-6.617,9.223-7.773c2.917-0.787,5.882-0.922,8.864-0.52
		c4.765,0.646,8.176,3.139,10.139,7.561c1.325,2.982,1.806,6.152,2.081,9.369c0.216,2.529,0.225,5.068,0.226,7.605
		c0.005,15.285,0.002,30.572,0.004,45.857c0,1.201-0.113,1.119,1.074,1.119c9.176,0.002,18.353,0.002,27.529,0
		c1.2,0,1.074,0.078,1.074-1.117c0.002-16.732-0.004-33.465,0.004-50.197c0.002-4.84-0.133-9.676-0.682-14.49
		c-0.478-4.172-1.266-8.277-2.665-12.248c-1.397-3.965-3.37-7.6-6.266-10.688c-3.444-3.672-7.69-6-12.487-7.389
		c-4.518-1.307-9.146-1.73-13.827-1.697c-5.485,0.039-10.716,1.188-15.598,3.736c-4.92,2.568-8.919,6.141-11.757,10.955
		c-0.147,0.25-0.192,0.744-0.612,0.613c-0.33-0.104-0.158-0.521-0.158-0.793c-0.011-3.688-0.005-7.377-0.01-11.066
		c-0.002-1.176,0.134-1.072-1.109-1.074c-8.706-0.002-17.41-0.002-26.115,0.002c-1.373,0-1.234-0.148-1.234,1.225
		C77.914,91.708,77.915,107.198,77.915,122.692z M59.333,122.683c0-15.551,0.001-31.102-0.001-46.652
		c0-1.156,0.076-1.041-1.058-1.043c-9.117-0.002-18.235-0.004-27.353,0.002c-1.451,0.002-1.258-0.174-1.258,1.275
		c-0.004,24.787-0.004,49.572-0.004,74.359c0,6.314,0,12.631,0.002,18.945c0,0.865,0.007,0.865,0.873,0.873
		c0.118,0.002,0.235,0,0.354,0c9.089,0,18.176,0.002,27.264-0.002c1.261,0,1.181,0.164,1.181-1.195
		C59.334,153.726,59.333,138.204,59.333,122.683z M27.288,44.757c0.004,9.529,7.692,17.201,17.236,17.199
		c9.516-0.002,17.194-7.707,17.191-17.25C61.711,35.245,54,27.552,44.52,27.552C34.976,27.552,27.283,35.231,27.288,44.757z"/>
	<path fill-rule="evenodd" clip-rule="evenodd" fill="#FDFEFE" d="M77.915,122.692c0-15.494-0.001-30.984,0.002-46.479
		c0-1.373-0.139-1.225,1.234-1.225c8.705-0.004,17.409-0.004,26.115-0.002c1.243,0.002,1.107-0.102,1.109,1.074
		c0.005,3.689-0.001,7.379,0.01,11.066c0,0.271-0.172,0.689,0.158,0.793c0.42,0.131,0.465-0.363,0.612-0.613
		c2.838-4.814,6.837-8.387,11.757-10.955c4.882-2.549,10.112-3.697,15.598-3.736c4.681-0.033,9.31,0.391,13.827,1.697
		c4.797,1.389,9.043,3.717,12.487,7.389c2.896,3.088,4.868,6.723,6.266,10.688c1.399,3.971,2.188,8.076,2.665,12.248
		c0.549,4.814,0.684,9.65,0.682,14.49c-0.008,16.732-0.002,33.465-0.004,50.197c0,1.195,0.126,1.117-1.074,1.117
		c-9.177,0.002-18.354,0.002-27.529,0c-1.188,0-1.074,0.082-1.074-1.119c-0.002-15.285,0.001-30.572-0.004-45.857
		c-0.001-2.537-0.01-5.076-0.226-7.605c-0.275-3.217-0.756-6.387-2.081-9.369c-1.963-4.422-5.374-6.914-10.139-7.561
		c-2.982-0.402-5.947-0.268-8.864,0.52c-4.281,1.156-7.332,3.779-9.223,7.773c-1.305,2.756-1.918,5.691-2.272,8.693
		c-0.306,2.582-0.368,5.176-0.368,7.775c0,15.197,0.001,30.393-0.002,45.59c0,1.268,0.142,1.16-1.116,1.16
		c-9.148,0.002-18.296,0.002-27.443,0c-1.127-0.002-1.103,0.154-1.103-1.096C77.915,153.794,77.915,138.243,77.915,122.692z"/>
	<path fill-rule="evenodd" clip-rule="evenodd" fill="#FDFEFE" d="M59.333,122.683c0,15.521,0.001,31.043,0,46.563
		c0,1.359,0.08,1.195-1.181,1.195c-9.088,0.004-18.175,0.002-27.264,0.002c-0.118,0-0.235,0.002-0.354,0
		c-0.866-0.008-0.873-0.008-0.873-0.873c-0.002-6.314-0.002-12.631-0.002-18.945c0-24.787,0-49.572,0.004-74.359
		c0-1.449-0.193-1.273,1.258-1.275c9.117-0.006,18.235-0.004,27.353-0.002c1.134,0.002,1.058-0.113,1.058,1.043
		C59.334,91.581,59.333,107.132,59.333,122.683z"/>
	<path fill-rule="evenodd" clip-rule="evenodd" fill="#FDFEFE" d="M27.288,44.757c-0.005-9.525,7.688-17.205,17.231-17.205
		c9.48,0,17.191,7.693,17.196,17.154c0.003,9.543-7.676,17.248-17.191,17.25C34.98,61.958,27.292,54.286,27.288,44.757z"/>
</g>
</svg>
