<?xml version="1.0" encoding="utf-8"?>
<!-- Generator: Adobe Illustrator 16.0.0, SVG Export Plug-In . SVG Version: 6.00 Build 0)  -->
<!DOCTYPE svg PUBLIC "-//W3C//DTD SVG 1.1//EN" "http://www.w3.org/Graphics/SVG/1.1/DTD/svg11.dtd">
<svg version="1.1" id="Layer_1" xmlns="http://www.w3.org/2000/svg" xmlns:xlink="http://www.w3.org/1999/xlink" x="0px" y="0px"
	 width="200px" height="200px" viewBox="0 0 200 200" enable-background="new 0 0 200 200" xml:space="preserve">
<g>
	<circle fill="#A5CE39" cx="100" cy="100" r="100"/>
	<path fill="#FFFFFF" d="M69.283,44.401c0.01,4.29-3.55,7.83-7.88,7.83c-4.34,0-7.87-3.51-7.88-7.84c-0.01-4.32,3.53-7.85,7.87-7.85
		C65.712,36.541,69.263,40.081,69.283,44.401z"/>
	<path fill="#FFFFFF" d="M97.913,134.721c4.25,0,8.5,0.01,12.75,0c2.84-0.01,5.69-0.01,8.54-0.11c3.11-0.1,6.16-0.62,9.15-1.52
		c5.49-1.63,10.24-4.47,13.96-8.89c4.8-5.69,7.11-12.36,7.46-19.73c0.15-3.13-0.21-6.23-0.98-9.27c-2.41-9.52-8.17-16.14-17.3-19.81
		c-4.94-1.98-10.12-2.7-15.41-2.75c-6.06-0.06-12.13-0.01-18.19-0.01c-0.14,0-0.3-0.04-0.4,0.02c-0.16,0.09-0.32,0.24-0.39,0.4
		c-0.07,0.17-0.02,0.39-0.02,0.59c0,10,0,20,0,30c0,10.08,0,20.16,0,30.24C97.083,134.721,97.083,134.721,97.913,134.721z
		 M161.953,100.571c0.73,11.3-2.49,21.36-9.82,29.99c-6.46,7.6-14.77,12.1-24.51,14.03c-3.24,0.64-6.52,0.92-9.83,0.92
		c-10.61-0.01-21.23,0-31.84,0c-0.85,0-0.85,0-0.85-0.88c0-13.66,0-27.32,0-40.99c0-13.54,0-27.09,0-40.63c0-0.2,0.01-0.4,0-0.6
		c-0.02-0.4,0.13-0.61,0.55-0.57c0.08,0.01,0.17,0,0.25,0c10.83,0,21.66-0.04,32.49,0.02c6.49,0.03,12.81,1.09,18.83,3.61
		c9.59,4.01,16.58,10.74,20.94,20.17C160.353,90.381,161.623,95.371,161.953,100.571z"/>
	<path fill="#FFFFFF" d="M66.583,61.841c0.8,0,0.8,0,0.8,0.81c0,13.66,0,27.33,0,40.99c0,13.51,0,27.02,0,40.53
		c0,0.18,0.01,0.37,0,0.55c0,0.64-0.05,0.69-0.67,0.7c-0.86,0-1.71,0-2.55,0c-2.65,0-5.3,0-7.95,0c-0.78,0-0.8-0.03-0.8-0.78
		c0-27.35,0-54.71,0-82.06c0-0.72,0.02-0.74,0.73-0.74C59.623,61.841,63.103,61.841,66.583,61.841z"/>
</g>
</svg>
