<?xml version="1.0" encoding="utf-8"?>
<!-- Generator: Adobe Illustrator 16.0.0, SVG Export Plug-In . SVG Version: 6.00 Build 0)  -->
<!DOCTYPE svg PUBLIC "-//W3C//DTD SVG 1.1//EN" "http://www.w3.org/Graphics/SVG/1.1/DTD/svg11.dtd">
<svg version="1.1" id="Layer_1" xmlns="http://www.w3.org/2000/svg" xmlns:xlink="http://www.w3.org/1999/xlink" x="0px" y="0px"
	 width="200px" height="199.812px" viewBox="0 0 200 199.812" enable-background="new 0 0 200 199.812" xml:space="preserve">
<g>
	<path fill-rule="evenodd" clip-rule="evenodd" fill="#010102" d="M103.711,199.906c0.195-0.238,0.391-0.264,0.586,0
		C104.102,199.906,103.906,199.906,103.711,199.906z"/>
	<path fill-rule="evenodd" clip-rule="evenodd" fill="#010102" d="M95.703,199.906c-0.058-0.111,0.001-0.16,0.102-0.17
		c0.132-0.012,0.244,0.027,0.289,0.17C95.964,199.906,95.833,199.906,95.703,199.906z"/>
	<circle fill-rule="evenodd" clip-rule="evenodd" fill="#869091" cx="99.782" cy="141.523" r="58.195"/>
	<path fill="#304F4F" d="M100.391-0.094v83.434c22.888,0.234,42.609,13.676,51.901,33.072L200,78.681L100.391-0.094z"/>
	<path fill="#5A6C6C" d="M0,78.681l47.499,37.273c9.466-19.32,29.318-32.627,52.283-32.627c0.204,0,0.405,0.008,0.608,0.012V-0.094
		L0,78.681z"/>
</g>
</svg>
